<svg id="Layer_1" enable-background="new 0 0 512 512" height="512" viewBox="0 0 512 512" width="512" xmlns="http://www.w3.org/2000/svg"><g clip-rule="evenodd" fill-rule="evenodd"><g><path d="m26.146 140.94h53.11c7.565 0 14.059 3.747 17.846 10.296l23.3 40.297h78.862c9.994 0 18.146 8.153 18.146 18.146v89.237c0 9.993-8.152 18.145-18.146 18.145h-173.118c-9.994 0-18.146-8.152-18.146-18.146v-139.829c0-9.995 8.152-18.146 18.146-18.146z" fill="#ffe177"/><g fill="#ffd064"><path d="m192.998 191.533h6.266c5.592 0 10.811 2.569 14.267 6.955 2.516 3.2 3.879 7.115 3.879 11.19v89.237c0 9.993-8.153 18.146-18.146 18.146h-15.698c5.614-3.091 9.434-9.068 9.434-15.908v-109.375c0-.081 0-.164-.002-.245z"/><path d="m120.402 191.533-23.3-40.297c-3.786-6.549-10.281-10.296-17.846-10.296h-53.11c-9.994 0-18.146 8.151-18.146 18.146v32.447z"/></g></g><g><path d="m367.683 7.998h37.852c5.391 0 10.02 2.671 12.719 7.338l16.606 28.72h56.207c7.123 0 12.933 5.811 12.933 12.933v63.601c0 7.122-5.811 12.933-12.933 12.933h-123.384c-7.123 0-12.933-5.81-12.933-12.933v-99.659c0-7.123 5.81-12.933 12.933-12.933z" fill="#ffe177"/><g fill="#ffd064"><path d="m486.602 44.056h4.466c3.985 0 7.705 1.831 10.168 4.957 1.793 2.281 2.765 5.071 2.765 7.976v63.601c0 7.122-5.81 12.933-12.933 12.933h-11.188c4.001-2.203 6.724-6.463 6.724-11.338v-77.954c-.001-.058-.001-.116-.002-.175z"/><path d="m434.861 44.056-16.606-28.72c-2.699-4.667-7.328-7.338-12.719-7.338h-37.852c-7.123 0-12.932 5.81-12.932 12.933v23.126z"/></g></g><g><path d="m367.683 193.238h37.852c5.391 0 10.02 2.671 12.719 7.338l16.606 28.72h56.207c7.123 0 12.933 5.811 12.933 12.933v63.601c0 7.122-5.811 12.933-12.933 12.933h-123.384c-7.123 0-12.933-5.81-12.933-12.933v-99.658c0-7.124 5.81-12.934 12.933-12.934z" fill="#ffe177"/><g fill="#ffd064"><path d="m486.602 229.296h4.466c3.985 0 7.705 1.831 10.168 4.957 1.793 2.281 2.765 5.071 2.765 7.976v63.601c0 7.122-5.81 12.933-12.933 12.933h-11.188c4.001-2.203 6.724-6.463 6.724-11.338v-77.954c-.001-.058-.001-.116-.002-.175z"/><path d="m434.861 229.296-16.606-28.72c-2.699-4.667-7.328-7.338-12.719-7.338h-37.852c-7.123 0-12.932 5.81-12.932 12.933v23.126z"/></g></g><g><path d="m367.683 378.477h37.852c5.391 0 10.02 2.671 12.719 7.338l16.606 28.72h56.207c7.123 0 12.933 5.811 12.933 12.933v63.601c0 7.122-5.811 12.933-12.933 12.933h-123.384c-7.123 0-12.933-5.81-12.933-12.933v-99.659c0-7.123 5.81-12.933 12.933-12.933z" fill="#ffe177"/><g fill="#ffd064"><path d="m486.602 414.536h4.466c3.985 0 7.705 1.831 10.168 4.957 1.793 2.281 2.765 5.071 2.765 7.976v63.601c0 7.122-5.81 12.933-12.933 12.933h-11.188c4.001-2.203 6.724-6.463 6.724-11.338v-77.955c-.001-.057-.001-.116-.002-.174z"/><path d="m434.861 414.536-16.606-28.72c-2.699-4.667-7.328-7.338-12.719-7.338h-37.852c-7.123 0-12.932 5.81-12.932 12.933v23.126z"/></g></g><path d="m317.45 62.761c4.418 0 8 3.582 8 8s-3.582 8-8 8h-24.287v169.239h24.287c4.418 0 8 3.582 8 8s-3.582 8-8 8h-24.287v169.24h24.287c4.418 0 8 3.582 8 8s-3.582 8-8 8h-32.287c-4.418 0-8-3.582-8-8v-177.24h-22.451c-4.418 0-8-3.582-8-8s3.582-8 8-8h22.451v-177.24c0-4.418 3.582-8 8-8h32.287z" fill="#a79ba7"/></g></svg>